<svg width="32" height="32" viewBox="0 0 32 32" fill="none" xmlns="http://www.w3.org/2000/svg">
  <defs>
    <linearGradient id="bgGradient" x1="0%" y1="0%" x2="100%" y2="100%">
      <stop offset="0%" style="stop-color:#6366F1;stop-opacity:1" />
      <stop offset="100%" style="stop-color:#8B5CF6;stop-opacity:1" />
    </linearGradient>
    <linearGradient id="toolGradient" x1="0%" y1="0%" x2="100%" y2="100%">
      <stop offset="0%" style="stop-color:#F59E0B;stop-opacity:1" />
      <stop offset="100%" style="stop-color:#EF4444;stop-opacity:1" />
    </linearGradient>
  </defs>
  
  <!-- Background circle with gradient -->
  <circle cx="16" cy="16" r="15" fill="url(#bgGradient)" stroke="rgba(255,255,255,0.2)" stroke-width="1"/>
  
  <!-- Tool icon (wrench) -->
  <path d="M12 8C12 8 14 6 16 8C18 10 20 12 18 14C16 16 14 18 12 16C10 14 8 12 10 10C12 8 12 8 12 8Z" fill="url(#toolGradient)"/>
  <path d="M20 16C20 16 22 18 20 20C18 22 16 24 14 22C12 20 10 18 12 16C14 14 16 12 18 14C20 16 20 16 20 16Z" fill="url(#toolGradient)"/>
  
  <!-- Vibration lines -->
  <path d="M6 6L8 8" stroke="rgba(255,255,255,0.6)" stroke-width="1.5" stroke-linecap="round"/>
  <path d="M26 26L24 24" stroke="rgba(255,255,255,0.6)" stroke-width="1.5" stroke-linecap="round"/>
  <path d="M6 26L8 24" stroke="rgba(255,255,255,0.6)" stroke-width="1.5" stroke-linecap="round"/>
  <path d="M26 6L24 8" stroke="rgba(255,255,255,0.6)" stroke-width="1.5" stroke-linecap="round"/>
</svg>